<svg width="800" height="800" viewBox="0 0 800 800" fill="none" xmlns="http://www.w3.org/2000/svg">
<path d="M457.736 725.657L475.806 695.13L432.776 669.66L414.706 700.19L457.736 725.657ZM324.192 695.13L342.263 725.657L385.289 700.19L367.219 669.66L324.192 695.13ZM414.706 700.19C408.283 711.044 391.716 711.044 385.289 700.19L342.263 725.657C368.049 769.224 431.949 769.224 457.736 725.657L414.706 700.19ZM349.999 91.667H449.999V41.667H349.999V91.667ZM708.333 350V383.334H758.333V350H708.333ZM91.666 383.334V350H41.666V383.334H91.666ZM41.666 383.334C41.666 421.82 41.6524 451.937 43.3097 476.227C44.9827 500.744 48.4404 521.147 56.2557 540.014L102.45 520.88C97.5784 509.12 94.693 494.794 93.194 472.824C91.6797 450.63 91.666 422.504 91.666 383.334H41.666ZM260.083 608.054C218.235 607.33 196.307 604.67 179.119 597.55L159.985 643.744C186.817 654.857 217.379 657.324 259.221 658.044L260.083 608.054ZM56.2557 540.014C75.7087 586.977 113.021 624.29 159.985 643.744L179.119 597.55C144.407 583.17 116.828 555.594 102.45 520.88L56.2557 540.014ZM708.333 383.334C708.333 422.504 708.319 450.63 706.806 472.824C705.306 494.794 702.419 509.12 697.549 520.88L743.743 540.014C751.559 521.147 755.016 500.744 756.689 476.227C758.346 451.937 758.333 421.82 758.333 383.334H708.333ZM540.776 658.044C582.619 657.324 613.183 654.857 640.013 643.744L620.879 597.55C603.693 604.67 581.763 607.33 539.916 608.054L540.776 658.044ZM697.549 520.88C683.169 555.594 655.593 583.17 620.879 597.55L640.013 643.744C686.976 624.29 724.289 586.977 743.743 540.014L697.549 520.88ZM449.999 91.667C505.039 91.667 544.566 91.6933 575.396 94.6247C605.856 97.5207 625.236 103.075 640.686 112.543L666.813 69.911C642.183 54.8193 614.246 48.0933 580.129 44.8493C546.383 41.6407 504.073 41.667 449.999 41.667V91.667ZM758.333 350C758.333 295.927 758.359 253.617 755.149 219.871C751.906 185.752 745.179 157.815 730.089 133.188L687.456 159.313C696.926 174.764 702.479 194.145 705.376 224.603C708.306 255.434 708.333 294.959 708.333 350H758.333ZM640.686 112.543C659.749 124.224 675.776 140.251 687.456 159.313L730.089 133.188C714.286 107.398 692.603 85.715 666.813 69.911L640.686 112.543ZM349.999 41.667C295.926 41.667 253.616 41.6407 219.87 44.8493C185.751 48.0933 157.814 54.8193 133.187 69.911L159.312 112.543C174.763 103.075 194.144 97.5207 224.602 94.6247C255.433 91.6933 294.958 91.667 349.999 91.667V41.667ZM91.666 350C91.666 294.959 91.6924 255.434 94.6237 224.603C97.5197 194.145 103.074 174.764 112.542 159.313L69.91 133.188C54.8184 157.815 48.0924 185.752 44.8484 219.871C41.6397 253.617 41.666 295.927 41.666 350H91.666ZM133.187 69.911C107.397 85.715 85.714 107.398 69.91 133.188L112.542 159.313C124.223 140.251 140.25 124.224 159.312 112.543L133.187 69.911ZM367.219 669.66C360.453 658.227 354.513 648.137 348.736 640.21C342.649 631.864 335.673 624.347 325.995 618.717L300.857 661.94C302.437 662.857 304.59 664.534 308.328 669.66C312.373 675.214 316.944 682.884 324.192 695.13L367.219 669.66ZM259.221 658.044C273.858 658.297 283.128 658.484 290.195 659.264C296.799 659.997 299.359 661.067 300.857 661.94L325.995 618.717C316.236 613.04 306.081 610.717 295.698 609.567C285.779 608.47 273.791 608.29 260.083 608.054L259.221 658.044ZM475.806 695.13C483.053 682.884 487.623 675.214 491.669 669.66C495.406 664.534 497.559 662.857 499.139 661.94L474.003 618.717C464.326 624.347 457.346 631.864 451.263 640.21C445.486 648.137 439.546 658.227 432.776 669.66L475.806 695.13ZM539.916 608.054C526.206 608.29 514.219 608.47 504.299 609.567C493.916 610.717 483.763 613.04 474.003 618.717L499.139 661.94C500.639 661.067 503.199 659.997 509.803 659.264C516.869 658.484 526.139 658.297 540.776 658.044L539.916 608.054Z" fill="black"/>
<path d="M400 500V233.333" stroke="black" stroke-width="50" stroke-linecap="round"/>
<path d="M266.666 433.333V300" stroke="black" stroke-width="50" stroke-linecap="round"/>
<path d="M533.334 433.333V300" stroke="black" stroke-width="50" stroke-linecap="round"/>
</svg>
