<?xml version="1.0" encoding="UTF-8"?>
<!-- Generator: visioncortex VTracer 0.6.4 -->
<svg version="1.1" xmlns="http://www.w3.org/2000/svg" width="1024" height="1024">
<path d="M0 0 C337.92 0 675.84 0 1024 0 C1024 337.92 1024 675.84 1024 1024 C686.0799999999999 1024 348.15999999999997 1024 0 1024 C0 686.0799999999999 0 348.15999999999997 0 0 Z " fill="#5E5EF4" transform="translate(0,0)"/>
<path d="M0 0 C337.92 0 675.84 0 1024 0 C1024 337.92 1024 675.84 1024 1024 C686.0799999999999 1024 348.15999999999997 1024 0 1024 C0 686.0799999999999 0 348.15999999999997 0 0 Z M226.4375 81.3125 C225.3558154296875 81.53123779296875 224.274130859375 81.7499755859375 223.15966796875 81.975341796875 C214.5515172888072 83.77047655434177 206.2547390143264 85.95909687111872 198 89 C197.246220703125 89.2715087890625 196.49244140625 89.543017578125 195.7158203125 89.82275390625 C170.55815725112672 98.98986211633995 149.24361936160375 112.46282775152413 130 131 C129.2355859375 131.70125000000002 128.471171875 132.4025 127.68359375 133.125 C115.99902508065522 144.16158722256537 107.29460375734935 157.7846903614789 100 172 C99.53086181640626 172.9015380859375 99.53086181640626 172.9015380859375 99.05224609375 173.8212890625 C77.98153216258544 214.79399465878052 77.53105483793676 260.17632208810636 77.62248504161835 305.10183572769165 C77.63143720418536 311.14140353352104 77.62285226513157 317.18095227588157 77.61662292480469 323.22052001953125 C77.60773915212305 334.3331072023287 77.61224240794773 345.4456480986551 77.62378674279898 356.55822909250855 C77.63438018737453 366.82702918579736 77.63885498258654 377.09581088602744 77.63749122619629 387.36461639404297 C77.63740719564724 388.04939552253114 77.63732316509821 388.73417465101926 77.63723658816889 389.4397046621889 C77.63688426493229 392.2203552779256 77.63650023186338 395.0010058866105 77.6360710116569 397.7816564915702 C77.63211873115095 423.7891501151878 77.64476413710392 449.7966112923285 77.66559757385403 475.80409563705325 C77.68397104510073 498.84889745316184 77.68977647982922 521.8936682087281 77.684326171875 544.9384765625 C77.68397973483798 546.4190520544051 77.68363363773926 547.8996275463899 77.68328788131475 549.380203038454 C77.68311688615242 550.1122155567539 77.68294589099008 550.8442280750535 77.68276971415617 551.5984227908775 C77.6819160074115 555.2842342162023 77.6810922344321 558.9700456469772 77.68030071258545 562.6558570861816 C77.68014363215771 563.3832093583234 77.67998655172997 564.1105616304651 77.67982471128926 564.8599548805505 C77.67582467982974 584.1895767266506 77.68132346368748 603.5191956320818 77.68981200456619 622.8488156795502 C77.6907189273323 624.9313718786597 77.69162457406745 627.0139280782986 77.69252723501995 629.09648427926 C77.69312834011536 630.4776443244965 77.69373695886007 631.8588043664837 77.69435314415023 633.2399644050747 C77.69855485677071 642.8216258173635 77.69916106280051 652.4032813588599 77.69724764954299 661.9849433936179 C77.6947929257367 674.3369413906767 77.69918267419446 686.6889135326994 77.71445765346289 699.0409043133259 C77.72165376147969 704.9863484457497 77.72581998192892 710.9317495452542 77.7212142944336 716.877197265625 C77.6816274688161 775.2066371029449 80.30178131060278 836.8706498737162 121 883 C121.7541015625 883.863671875 122.508203125 884.72734375 123.28515625 885.6171875 C125.49250549222316 888.1085010529723 127.73642429176365 890.5597750078178 130 893 C130.5762109375 893.641953125 131.15242187500002 894.28390625 131.74609375 894.9453125 C149.02625093834217 913.3415600189924 172.46690755251444 925.6974370103497 196 934 C197.048974609375 934.3724584960937 197.048974609375 934.3724584960937 198.119140625 934.75244140625 C223.0062072584993 943.4268465154624 249.0072561026169 945.9055908222238 275.20079040527344 946.5544128417969 C276.0177568738908 946.5753843747079 276.8347233425081 946.596355907619 277.67644637078047 946.6179629415274 C296.75746131812554 947.0992480929863 315.8346910452433 947.1439027850322 334.9207202196121 947.1307246685028 C339.9073277202727 947.1284108488695 344.89393211490733 947.1319792149692 349.8805389404297 947.1347045898438 C359.5933584911027 947.139099514107 369.3061702180242 947.1382139941326 379.018990047276 947.1352919489145 C386.93293286320875 947.1330119527797 394.84687352225353 947.1327364907219 402.7608165740967 947.1338157653809 C403.8972257025167 947.1339689984172 405.03363483093676 947.1341222314536 406.204480599612 947.1342801079154 C408.5148363963925 947.1345999118834 410.8251921925666 947.1349241269792 413.13554798811674 947.135252699256 C434.6897835001203 947.138089346788 456.2440147268241 947.1348496217523 477.7982495352626 947.1294523328543 C496.18491915387557 947.1249902163627 514.5715824497391 947.1257588947245 532.958251953125 947.13037109375 C554.4367627302888 947.1357565355746 575.9152697669425 947.1378104053954 597.3937811255455 947.1347588300705 C599.6966784392117 947.1344403670963 601.9995757534472 947.1341259944857 604.3024730682373 947.1338157653809 C605.434801361151 947.1336614898593 606.5671296540647 947.1335072143376 607.7337709255517 947.1333482638001 C615.6098893806738 947.1324946245248 623.4860054104347 947.1339208339497 631.3621234893799 947.1362953186035 C641.0016095479067 947.1391381871149 650.6410874979211 947.1382628500686 660.2805726602674 947.133014574647 C665.1733848987184 947.1304360927952 670.0661837649676 947.1292690344706 674.9589958190918 947.1326637268066 C695.3252749135893 947.145513637548 715.6810594870396 946.9983364559049 736.0433197021484 946.5739440917969 C736.9717599285394 946.5558593775332 737.9002001549303 946.5377746632695 738.8567749336362 946.5191419273615 C798.6844422359158 945.3236613673612 854.1742867674377 933.6531378584245 897.624267578125 889.795654296875 C908.4479081768548 878.5231268356165 916.8957757019605 865.8772899560821 924 852 C924.318076171875 851.3830224609375 924.63615234375 850.766044921875 924.9638671875 850.13037109375 C946.3336222732014 808.1165840574415 946.312828758934 761.226497174089 946.2614493370056 715.2632247209549 C946.2568812247101 709.2065659315559 946.2639299684981 703.1499182262436 946.2694091796875 697.09326171875 C946.2777490384552 685.9420845683647 946.2770824522885 674.790926253106 946.2715862430632 663.6397490045056 C946.2665325668338 653.3344210262821 946.2652521745122 643.0291010141664 946.2676315307617 632.7237720489502 C946.2677843009494 632.0371864903951 946.2679370711371 631.3506009318401 946.2680944707245 630.6432097502984 C946.2687172610821 627.8553556827866 946.2693540740239 625.0675016190698 946.2700139982626 622.2796475600917 C946.2761162457016 596.1888028653108 946.2706100393474 570.0979720064497 946.2598202042282 544.0071294503286 C946.25032968647 520.8824311046167 946.2511809746808 497.75775479471145 946.2607421875 474.633056640625 C946.271476406846 448.58497103676495 946.2756843384267 422.5368976311715 946.269517660141 396.4888101220131 C946.2688763314471 393.70667747930037 946.2682506440136 390.9245448334054 946.2676315307617 388.14241218566895 C946.2674733760394 387.457500757291 946.2673152213171 386.772589328913 946.2671522740275 386.066923008766 C946.2648877107216 375.7733304065181 946.2675183662307 365.4797466878833 946.272590637207 355.18615531921387 C946.2783355412475 343.46992157286036 946.2766331446229 331.7537087737727 946.2660291492939 320.0374773070216 C946.2608045179356 314.0699051284039 946.2586604106317 308.10237744093115 946.2653274536133 302.1348056793213 C946.681176163718 262.64453852730685 946.681176163718 262.64453852730685 941.6875 223.5625 C941.4687622070312 222.47960693359374 941.2500244140625 221.3967138671875 941.024658203125 220.281005859375 C933.9555213495879 186.21785412947733 919.1527365392897 155.11932366366477 894.41015625 130.4140625 C893.0307413411064 129.03241191054087 891.6680209618522 127.63245177919357 890.359375 126.18359375 C856.9513399427384 89.93749746214576 801.3598225476627 79.19346003798803 754.4912257939577 77.09133480489254 C746.8360758667202 76.81067713559447 739.1743270804852 76.85941355592428 731.5152435302734 76.86628723144531 C729.5087476433806 76.86441442751106 727.5022521203534 76.86211187274823 725.495757162571 76.85942190885544 C720.0321201643183 76.85335553301984 714.5684985842795 76.85343134987443 709.104858994484 76.85461628437042 C703.1925741371329 76.8548216073456 697.2802940623053 76.84928907231652 691.3680114746094 76.84455871582031 C679.8036028922066 76.83628011041534 668.2391994092034 76.83350514551239 656.6747881099582 76.8329463377595 C647.2675364668725 76.83248527114363 637.8602864640546 76.83041904671448 628.4530353546143 76.82724571228027 C625.7367290079422 76.82634805211582 623.0204226587307 76.82545823632701 620.3041163086891 76.82457083463669 C619.6286706541781 76.8243497865065 618.9532249996671 76.82412873837632 618.2573112950195 76.82390099181794 C599.280272290469 76.81775414271358 580.3032338540215 76.81379968187291 561.3261938095093 76.8142442703247 C560.6119596117782 76.81425984905567 559.897725414047 76.81427542778664 559.1618477557786 76.81429147860035 C555.5425221994217 76.81437457536 551.9231966435809 76.81447361495817 548.3038710877299 76.81457618623972 C547.5851715208124 76.81459613145329 546.8664719538949 76.81461607666687 546.1259936122224 76.81463662628084 C544.6726103831319 76.81467706390727 543.2192271540787 76.81471886180965 541.7658439250663 76.81476201768965 C519.1659109968537 76.81537443564935 496.56599308633724 76.80787131649232 473.966064453125 76.794189453125 C448.52377316383684 76.77879286480642 423.0814917397981 76.77022536554561 397.63919550180435 76.77115267515182 C394.92068866892885 76.77122729544278 392.2021818367608 76.77127600827662 389.48367500305176 76.77130699157715 C388.47976744976125 76.77132447310491 388.47976744976125 76.77132447310491 387.45557893579826 76.77134230779484 C377.39821104132994 76.77137104892626 367.3408555543155 76.76605122545635 357.28349113464355 76.75797462463379 C345.82952276235943 76.74883483319111 334.3755790144003 76.7467228219512 322.9216085597873 76.75348404794931 C317.08762645132765 76.7567316942284 311.25369149217715 76.75686999895164 305.419713973999 76.74813079833984 C265.7224820301077 76.29886859885458 265.7224820301077 76.29886859885458 226.4375 81.3125 Z " fill="#FEFEFE" transform="translate(0,0)"/>
<path d="M0 0 C1.0940917968749773 -0.010221862792974434 2.1881835937499545 -0.02044372558594887 3.3154296875 -0.030975341796875 C6.904686978192331 -0.05860171397935687 10.49316905697799 -0.05686668146452689 14.08251953125 -0.05224609375 C16.595390635378862 -0.060028992641065315 19.108259130309875 -0.06870017827307606 21.621124267578125 -0.078216552734375 C26.878016241174464 -0.09310520262118871 32.1347102967336 -0.09286405706171763 37.3916015625 -0.08203125 C43.439259261771554 -0.0699591624076561 49.485985463253314 -0.0945723916014174 55.53348433971405 -0.13717138767242432 C61.38655236903139 -0.1768607178728132 67.23925972214556 -0.18272650197144458 73.09244155883789 -0.17570114135742188 C75.566612871762 -0.17672317269412474 78.04079977608671 -0.18711575205756503 80.51488876342773 -0.20732498168945313 C105.98235799854456 -0.3898435623312366 105.98235799854456 -0.3898435623312366 114.59033203125 6.54931640625 C120.26569439533068 12.285443005117855 122.55821950587233 18.23339949720483 122.96533203125 26.29931640625 C122.62347699455086 36.966459681028425 116.70169853780226 46.74638008203027 111.96533203125 56.04931640625 C111.33478924743997 57.297764080886395 110.70458533843407 58.54638296134419 110.07470703125 59.795166015625 C105.87638803390928 68.10024621588144 101.58783199843094 76.35603826242703 97.21923828125 84.57275390625 C94.55979602834088 89.58402023822651 91.96497368165706 94.6279696023376 89.3662109375 99.6708984375 C84.60193486308413 108.91424609871979 79.79670923113326 118.10771714077691 74.6298828125 127.1328125 C71.89502654976059 131.9356418216061 69.39708018459896 136.82787647014612 66.95556640625 141.78515625 C63.62941553549467 148.52270267050005 60.1771769070092 155.19314200257963 56.71533203125 161.86181640625 C56.40995513916016 162.45008209228513 56.10457824707032 163.03834777832031 55.789947509765625 163.64443969726563 C51.68946903650169 171.54031963837565 47.56118422758232 179.4210758732438 43.407958984375 187.289306640625 C37.40457524471299 198.6757849238872 31.504978801238053 210.11657876835397 25.59033203125 221.54931640625 C25.12889801025392 222.44124694824217 25.12889801025392 222.44124694824217 24.65814208984375 223.3511962890625 C21.837228204389362 228.8041639214485 19.01684528345595 234.25740608800322 16.197021484375 239.7109375 C12.000406647754403 247.82664680044218 7.797388487622129 255.9390134943045 3.59033203125 264.04931640625 C-1.2062079290076326 273.29679705014655 -5.998406318503044 282.5465120744017 -10.78466796875 291.79931640625 C-11.092542419433585 292.3944403076172 -11.40041687011717 292.98956420898435 -11.717620849609375 293.60272216796875 C-15.337513232772267 300.6005269884539 -18.952822227052366 307.600672638408 -22.56201171875 314.60400390625 C-28.991692085086015 327.07883054856285 -35.43103607863759 339.5468730181599 -41.98779296875 351.95556640625 C-44.81535141807274 357.3095789109576 -47.61194758787451 362.67966896653684 -50.40966796875 368.04931640625 C-53.975025235615135 374.89228457796344 -57.55496960328787 381.7270013789994 -61.15966796875 388.54931640625 C-65.63221461141381 397.0204974645403 -70.02217264697697 405.53390487117963 -74.40966796875 414.04931640625 C-79.55816714344064 424.0417120773966 -84.73643428854211 434.01675333364165 -89.98779296875 443.95556640625 C-92.81535152091055 449.309579105682 -95.61191833643079 454.67968403088116 -98.40966796875 460.04931640625 C-102.01838377150489 466.974673637588 -105.6396641550632 473.89299339084357 -109.28466796875 480.79931640625 C-113.36337930379909 488.53020717202946 -117.3908237309663 496.28715661972194 -121.40966796875 504.04931640625 C-125.81848257531033 512.5646808793388 -130.24641966867125 521.0689512061009 -134.72216796875 529.54931640625 C-137.97039739820661 535.7060911418215 -141.19269258917416 541.8761602693679 -144.40966796875 548.04931640625 C-151.04028230050437 560.767376820255 -157.70692813970481 573.4656207743454 -164.43701171875 586.13134765625 C-165.94925378191874 588.9787263184332 -167.46090145312814 591.8264198518955 -168.97216796875 594.67431640625 C-169.35667114257808 595.3987796020508 -169.74117431640627 596.1232427978516 -170.1373291015625 596.8696594238281 C-175.93684806009514 607.8039488531211 -181.64008244751858 618.7843503014283 -187.28466796875 629.79931640625 C-192.93419270769687 640.8231713711673 -198.72325525078645 651.7523497284703 -204.69873046875 662.60400390625 C-207.42493755034104 667.558792582098 -210.08646058393674 672.5458802475843 -212.72216796875 677.54931640625 C-213.1345068359375 678.3289575195313 -213.54684570312497 679.1085986328125 -213.9716796875 679.911865234375 C-215.80924506554845 683.4077122284351 -217.60181046700382 686.9101683237964 -219.26904296875 690.49072265625 C-225.21986660005575 703.2343087461543 -232.10356635545168 711.3308597677495 -245.40966796875 716.54931640625 C-248.373314996607 717.4297899937451 -251.02565055750728 717.6803293926779 -254.11331176757813 717.6964874267578 C-255.0551582336426 717.7036427307129 -255.99700469970702 717.710798034668 -256.96739196777344 717.7181701660156 C-258.50720481872554 717.7222035217285 -258.50720481872554 717.7222035217285 -260.078125 717.726318359375 C-261.1647996520996 717.7328895568847 -262.25147430419923 717.7394607543945 -263.37107849121094 717.7462310791016 C-266.9698798650217 717.7659521891316 -270.5686394993679 717.7776249782153 -274.16748046875 717.78759765625 C-275.39801021575926 717.7916731834412 -276.62853996276857 717.7957487106323 -277.89635848999023 717.7999477386475 C-283.7397581270812 717.8186551836043 -289.58314141226793 717.8332207896876 -295.4265652894974 717.8415597081184 C-301.4832242542002 717.850347583577 -307.53963203767097 717.8696099626029 -313.59619140625 717.906005859375 C-320.10419413315213 717.9444883322129 -326.611970462496 717.9632520080538 -333.1200828552246 717.9677639007568 C-335.595907733819 717.9726253711858 -338.0717291969314 717.9842267064969 -340.54748916625977 718.0028018951416 C-344.0202056223349 718.0272346014845 -347.4920670661376 718.0262200718454 -350.96484375 718.019287109375 C-351.9792402648926 718.0320971679688 -352.99363677978516 718.0449072265625 -354.0387725830078 718.05810546875 C-364.4895946960248 717.9824158403587 -372.4149300318573 714.6307174871534 -379.87744140625 707.315185546875 C-387.6606728452841 698.8138136829319 -392.7159142399022 687.4591785913797 -398.0188903808594 677.2974243164063 C-399.9846178220181 673.5313006738899 -401.96567788550215 669.7732440669417 -403.94482421875 666.01416015625 C-404.3336225891113 665.2748022460937 -404.72242095947263 664.5354443359375 -405.1230010986328 663.773681640625 C-408.22695745998703 657.8773253516904 -411.38976886497545 652.0150946425241 -414.59716796875 646.17431640625 C-419.087206165446 637.9938037987533 -423.5115545147446 629.7795247543085 -427.90966796875 621.54931640625 C-432.3740781508563 613.1963494227934 -436.8613962941976 604.8569996275191 -441.40966796875 596.54931640625 C-445.95794125513055 588.2416302408828 -450.44498532669206 579.9021395515258 -454.90966796875 571.54931640625 C-459.87170953561736 562.2664865382635 -464.8714137763007 553.00561078054 -469.923583984375 543.771484375 C-473.76000846050476 536.7543688000659 -477.55930636768215 529.7177533068221 -481.34716796875 522.67431640625 C-485.8993397705904 514.2103662529173 -490.45781366431845 505.7499498864396 -495.03466796875 497.29931640625 C-495.5717236328125 496.3077050781251 -496.108779296875 495.31609374999994 -496.662109375 494.29443359375 C-499.2088915175001 489.59612619173254 -501.76157756347055 484.901188022523 -504.32763671875 480.21337890625 C-510.4398070352984 469.04663584059927 -516.4674293078035 457.83815406606936 -522.4468383789063 446.5999755859375 C-527.7342372146704 436.66459880697744 -533.083490357839 426.7654500287533 -538.48779296875 416.89306640625 C-541.6246375148972 411.1627008618674 -544.7374622265717 405.4194445006766 -547.84716796875 399.67431640625 C-548.6566186523437 398.17916503906247 -548.6566186523437 398.17916503906247 -549.482421875 396.65380859375 C-551.6737662230179 392.6055366804819 -553.8644544307734 388.5569098526946 -556.05517578125 384.50830078125 C-557.6938830777037 381.4801488549451 -559.3329393876932 378.4521861746965 -560.97216796875 375.42431640625 C-561.508740234375 374.4329467773438 -562.0453125 373.44157714843755 -562.59814453125 372.420166015625 C-565.7459935109846 366.6080575444323 -568.9084535653535 360.80419874315623 -572.08203125 355.006103515625 C-576.4708414274447 346.98446738240625 -580.8249336336202 338.94624604242 -585.09716796875 330.86181640625 C-585.5195776367187 330.06541748046874 -585.9419873046875 329.2690185546875 -586.377197265625 328.448486328125 C-586.9559460449219 327.34790893554685 -586.9559460449219 327.34790893554685 -587.54638671875 326.22509765625 C-588.0523840332031 325.26470581054684 -588.0523840332031 325.26470581054684 -588.568603515625 324.284912109375 C-591.4112447968618 318.4189217267009 -590.9367556134447 311.91097145124587 -590.40966796875 305.54931640625 C-587.987080629356 300.3452398994037 -584.2989314498021 296.9169153806367 -579.1012535095215 294.45665550231934 C-576.1643100277905 293.46660573293445 -573.8757007269982 293.2925608765959 -570.7817993164063 293.2818908691406 C-569.6604357910156 293.2733609008789 -568.539072265625 293.2648309326172 -567.3837280273438 293.25604248046875 C-565.5524032592773 293.25740203857424 -565.5524032592773 293.25740203857424 -563.68408203125 293.2587890625 C-561.7442041015624 293.2487132263184 -561.7442041015624 293.2487132263184 -559.76513671875 293.2384338378906 C-556.2236001364527 293.22079409962424 -552.6821602603401 293.2160792357861 -549.1405839920044 293.21480226516724 C-546.924825676054 293.21337860600715 -544.7090917782875 293.20910487690287 -542.4933395385742 293.20380783081055 C-534.7541701809304 293.1853120893191 -527.0150696323417 293.1771363744343 -519.27587890625 293.1787109375 C-512.0770923775877 293.1799112283698 -504.8786062081374 293.15883002706806 -497.67989563941956 293.127223610878 C-491.48775908388404 293.1010115978537 -485.29572030316774 293.09034574409924 -479.10352873802185 293.09162175655365 C-475.4104669643882 293.0921300809526 -471.71767204091077 293.08651962636185 -468.02466583251953 293.0652656555176 C-463.90051492815104 293.0421780956689 -459.7770300445365 293.05143412917846 -455.65283203125 293.0634765625 C-454.4400457763672 293.05223754882815 -453.22725952148437 293.04099853515623 -451.97772216796875 293.0294189453125 C-443.855401201267 293.0895773313891 -437.5391754024555 294.31955556735204 -431.05322265625 299.392333984375 C-425.80896165393494 305.4508981343836 -422.1749925771387 312.07618749902275 -418.6560363769531 319.2157897949219 C-417.2847433573846 321.99731082836615 -415.8828713099016 324.76304901043613 -414.48255920410156 327.53004455566406 C-413.7772746127984 328.924032527446 -413.0734379622344 330.31875406140557 -412.37107849121094 331.71421813964844 C-409.5203390411642 337.3700516420091 -406.53727379898 342.9441189378309 -403.47216796875 348.48681640625 C-398.61790550773304 357.29766950985754 -393.87146080271623 366.16176742657444 -389.15966796875 375.04931640625 C-388.43294816125285 376.41951786606126 -387.7062228893167 377.7897164276876 -386.9794921875 379.159912109375 C-385.8823717929745 381.22872356445987 -384.78534950048936 383.29758686498303 -383.68853759765625 385.36656188964844 C-379.83251662244214 392.63995226783095 -375.96843113662817 399.9090275020118 -372.09716796875 407.17431640625 C-371.59719802856443 408.11287979125973 -371.59719802856443 408.11287979125973 -371.0871276855469 409.0704040527344 C-366.84664283898434 417.0273675619935 -362.56088526159135 424.9578900424076 -358.22216796875 432.86181640625 C-354.0094449157957 440.53643794778395 -349.9298584928723 448.27219395404177 -345.90966796875 456.04931640625 C-339.9117687941391 467.644781393366 -333.7232841046859 479.12307422601407 -327.40966796875 490.54931640625 C-326.7923681640625 491.667578125 -326.175068359375 492.78583984374995 -325.5390625 493.93798828125 C-323.5616497213912 497.51855006745234 -321.57997844699133 501.0967415730763 -319.59716796875 504.67431640625 C-318.9869580078125 505.77630371093755 -318.376748046875 506.878291015625 -317.748046875 508.013671875 C-313.7276828524439 515.2485777050936 -309.6078951321256 522.4162583005185 -305.40966796875 529.54931640625 C-302.04463114774927 529.5487569692318 -302.04463114774927 529.5487569692318 -298.40966796875 528.54931640625 C-296.6409108588049 526.3741353280271 -295.60558851292234 524.7101067220955 -294.40966796875 522.23681640625 C-294.0426879882813 521.5337133789062 -293.6757080078125 520.8306103515625 -293.297607421875 520.106201171875 C-292.4567135997878 518.4950384468971 -291.62576081828286 516.8786634628864 -290.802734375 515.25830078125 C-289.3109590828897 512.3573651623828 -287.7636605031224 509.4916883970292 -286.20263671875 506.62744140625 C-277.7589974383958 491.10509885010174 -269.6637681672651 475.40846992232036 -261.638916015625 459.666259765625 C-257.17574698949613 450.91466343878335 -252.66088013141172 442.194012202449 -248.0732879638672 433.50694274902344 C-244.32071024526937 426.39646423579575 -240.6332517561675 419.25366063863794 -236.96255493164063 412.10064697265625 C-232.08848400033833 402.60453671903247 -227.21117740369164 393.1106955749691 -222.22216796875 383.67431640625 C-214.02043563194525 368.1523141500302 -205.96307317527908 352.5557413865161 -197.97216796875 336.92431640625 C-197.49459045410163 335.9901489257812 -197.01701293945314 335.0559814453125 -196.52496337890625 334.093505859375 C-194.1481424026722 329.4431390617199 -191.77320934950353 324.7918193081155 -189.40087890625 320.13916015625 C-184.66626544041856 310.8613256750896 -179.884083168031 301.61191173688746 -175.01910400390625 292.4017333984375 C-171.28420893349903 285.3272173350671 -167.61579312773642 278.21966501904325 -163.96337890625 271.102294921875 C-158.79070651730922 261.024212874006 -153.59925310984363 250.95807712873562 -148.29638671875 240.94775390625 C-143.71860381589977 232.2821180433295 -139.25563219278126 223.55704188313388 -134.77438354492188 214.84124755859375 C-130.7080746202589 206.93380886395278 -126.63662571716463 199.03066932169884 -122.47216796875 191.17431640625 C-117.29032459863015 181.39656248524648 -112.25607842206932 171.54292509812518 -107.20291137695313 161.69830322265625 C-102.61927605508868 152.76991303135833 -98.01798173121074 143.85356521546174 -93.31591796875 134.98681640625 C-88.18002885614203 125.27026943645114 -83.19012344145688 115.47718691876298 -78.17919921875 105.69580078125 C-74.32789060503967 98.18427474582651 -70.44205284262773 90.69309177965454 -66.49951171875 83.22900390625 C-61.690992588981885 74.12189742128663 -56.98859515324591 64.9625953535162 -52.307952880859375 55.78924560546875 C-50.93775546565871 53.106950576365364 -49.56359102670456 50.42672227578163 -48.188232421875 47.7470703125 C-42.485918769713635 36.635069953633746 -42.485918769713635 36.635069953633746 -36.88623046875 25.47119140625 C-36.3995288085938 24.50358886718749 -35.912827148437486 23.535986328125006 -35.411376953125 22.5390625 C-34.578761895187654 20.88249417926636 -33.7589038319295 19.219400305241493 -32.956787109375 17.5478515625 C-28.752286443968956 9.266004354546482 -22.79011438358009 4.764387374939361 -14.248831748962402 1.4190006256103516 C-9.50962038077921 -0.03270052944372992 -4.924201827196612 -0.02412886849504048 0 0 Z " fill="#56E4E4" transform="translate(746.40966796875,146.45068359375)"/>
<path d="M0 0 C0.7360546874999727 0.0045117187499954525 1.4721093749999454 0.009023437500005116 2.23046875 0.013671875 C4.028681581418482 0.025348581697528516 5.82685197496221 0.0432798904687246 7.625 0.0625 C7.625 0.3924999999999983 7.625 0.7224999999999966 7.625 1.0625 C10.100000000000023 1.5575000000000045 10.100000000000023 1.5575000000000045 12.625 2.0625 C12.625 2.3924999999999983 12.625 2.7224999999999966 12.625 3.0625 C9.43751971079439 3.0918257209905704 6.250074720717635 3.1094073913032645 3.0625 3.125 C1.7196191406250136 3.1375683593749955 1.7196191406250136 3.1375683593749955 0.349609375 3.150390625 C-4.67497942738521 3.1687957121882278 -9.42317290889946 2.9251639788337087 -14.375 2.0625 C-14.375 1.7325000000000017 -14.375 1.4025000000000034 -14.375 1.0625 C-9.517703553810975 0.08950844058988139 -4.924937501074737 -0.0578880538101032 0 0 Z " fill="#6668F4" transform="translate(744.375,76.9375)"/>
<path d="M0 0 C0.3300000000000409 0.6599999999999966 0.6599999999999682 1.3199999999999932 1 2 C0.227294921875 4.047119140625 0.227294921875 4.047119140625 -1.01953125 6.53515625 C-1.4649023437500546 7.426542968749999 -1.9102734374999955 8.317929687499998 -2.369140625 9.236328125 C-2.845449218749991 10.16896484374999 -3.321757812499982 11.101601562500008 -3.8125 12.0625 C-4.277207031249986 12.99900390625001 -4.741914062499973 13.935507812499992 -5.220703125 14.900390625 C-8.737742130750576 21.868871065375288 -8.737742130750576 21.868871065375288 -11 23 C-9.67479322408326 18.71068338229847 -8.008786159734655 14.854719353593481 -5.9375 10.875 C-3.841429205532222 6.916980056525432 -3.841429205532222 6.916980056525432 -2.44140625 2.6953125 C-2.295742187499968 2.1358593749999955 -2.15007812500005 1.576406249999991 -2 1 C-1.3400000000000318 0.6699999999999875 -0.67999999999995 0.3400000000000034 0 0 Z " fill="#6147F7" transform="translate(710,169)"/>
</svg>
