<svg width="800" height="800" viewBox="0 0 800 800" fill="none" xmlns="http://www.w3.org/2000/svg">
<path d="M233.333 599.944C160.832 599.54 121.568 596.324 95.9553 570.71C66.666 541.42 66.666 494.28 66.666 400V266.667C66.666 172.386 66.666 125.246 95.9553 95.9563C125.245 66.667 172.385 66.667 266.666 66.667H533.333C627.613 66.667 674.753 66.667 704.043 95.9563C733.333 125.246 733.333 172.386 733.333 266.667V400C733.333 494.28 733.333 541.42 704.043 570.71C679.716 595.04 643.069 599.16 577.323 599.857L549.999 599.944" stroke="black" stroke-width="50"/>
<path d="M300 200H500" stroke="black" stroke-width="50" stroke-linecap="round"/>
<path d="M233.334 316.667H566.667" stroke="black" stroke-width="50" stroke-linecap="round"/>
<path d="M363.017 464.847C384.323 446.69 415.663 446.69 436.973 464.847C446.103 472.63 457.457 477.334 469.413 478.287C497.323 480.514 519.483 502.674 521.71 530.58C522.663 542.54 527.367 553.894 535.147 563.024C553.307 584.334 553.307 615.674 535.147 636.98C527.367 646.11 522.663 657.464 521.71 669.424C519.483 697.33 497.323 719.49 469.413 721.717C457.457 722.674 446.103 727.374 436.973 735.157C415.663 753.314 384.323 753.314 363.017 735.157C353.883 727.374 342.533 722.674 330.573 721.717C302.666 719.49 280.505 697.33 278.278 669.424C277.324 657.464 272.621 646.11 264.84 636.98C246.681 615.674 246.681 584.334 264.84 563.024C272.621 553.894 277.324 542.54 278.278 530.58C280.505 502.674 302.666 480.514 330.573 478.287C342.533 477.334 353.883 472.63 363.017 464.847Z" stroke="black" stroke-width="50"/>
<path d="M350 606.667L378.57 633.334L450 566.667" stroke="black" stroke-width="50" stroke-linecap="round" stroke-linejoin="round"/>
</svg>
