<svg width="800" height="800" viewBox="0 0 800 800" fill="none" xmlns="http://www.w3.org/2000/svg">
<path d="M245.919 418.52L227.203 435.093C231.713 440.186 238.102 443.22 244.899 443.496C251.695 443.776 258.311 441.273 263.221 436.563L245.919 418.52ZM317.302 384.713C327.269 375.156 327.602 359.33 318.046 349.363C308.49 339.4 292.665 339.066 282.699 348.62L317.302 384.713ZM218.716 350.093C209.562 339.756 193.762 338.796 183.426 347.95C173.089 357.103 172.131 372.903 181.284 383.24L218.716 350.093ZM497.724 300.31C507.1 310.445 522.917 311.061 533.05 301.685C543.187 292.309 543.804 276.492 534.427 266.356L497.724 300.31ZM401.457 208.333C301.934 208.333 220.919 288.433 220.919 387.653H270.919C270.919 316.417 329.177 258.333 401.457 258.333V208.333ZM220.919 387.653V418.52H270.919V387.653H220.919ZM263.221 436.563L317.302 384.713L282.699 348.62L228.617 400.473L263.221 436.563ZM264.635 401.943L218.716 350.093L181.284 383.24L227.203 435.093L264.635 401.943ZM534.427 266.356C501.437 230.696 454.04 208.333 401.457 208.333V258.333C439.597 258.333 473.847 274.501 497.724 300.31L534.427 266.356Z" fill="black"/>
<path d="M553.961 381.476L572.651 364.873C568.134 359.79 561.744 356.766 554.951 356.496C548.157 356.226 541.547 358.736 536.644 363.446L553.961 381.476ZM482.684 415.27C472.724 424.833 472.407 440.66 481.971 450.616C491.534 460.576 507.361 460.896 517.317 451.333L482.684 415.27ZM581.311 449.906C590.481 460.226 606.284 461.16 616.604 451.99C626.927 442.82 627.861 427.02 618.691 416.696L581.311 449.906ZM301.563 500.156C292.115 490.09 276.294 489.586 266.226 499.036C256.158 508.483 255.656 524.306 265.105 534.373L301.563 500.156ZM397.827 591.663C497.587 591.663 578.961 511.653 578.961 412.343H528.961C528.961 483.49 470.527 541.663 397.827 541.663V591.663ZM578.961 412.343V381.476H528.961V412.343H578.961ZM536.644 363.446L482.684 415.27L517.317 451.333L571.277 399.51L536.644 363.446ZM535.271 398.083L581.311 449.906L618.691 416.696L572.651 364.873L535.271 398.083ZM265.105 534.373C298.182 569.616 345.451 591.663 397.827 591.663V541.663C359.734 541.663 325.516 525.68 301.563 500.156L265.105 534.373Z" fill="black"/>
<path d="M66.666 400C66.666 242.865 66.666 164.298 115.482 115.483C164.297 66.667 242.864 66.667 399.999 66.667C557.133 66.667 635.703 66.667 684.516 115.483C733.333 164.298 733.333 242.865 733.333 400C733.333 557.134 733.333 635.704 684.516 684.517C635.703 733.334 557.133 733.334 399.999 733.334C242.864 733.334 164.297 733.334 115.482 684.517C66.666 635.704 66.666 557.134 66.666 400Z" stroke="black" stroke-width="50"/>
</svg>
