<svg width="800" height="800" viewBox="0 0 800 800" fill="none" xmlns="http://www.w3.org/2000/svg">
<path d="M100 347.224C100 240.636 100 187.343 112.584 169.414C125.168 151.485 175.277 134.332 275.497 100.027L294.591 93.491C346.833 75.6083 372.953 66.667 400 66.667C427.047 66.667 453.167 75.6083 505.41 93.491L524.503 100.027C624.723 134.332 674.833 151.485 687.417 169.414C700 187.343 700 240.636 700 347.224C700 363.32 700 380.78 700 399.714C700 587.647 558.7 678.85 470.047 717.577C446 728.08 433.977 733.334 400 733.334C366.023 733.334 354 728.08 329.952 717.577C241.299 678.85 100 587.647 100 399.714C100 380.78 100 363.32 100 347.224Z" stroke="black" stroke-width="50"/>
<path d="M316.666 413.333L364.286 466.666L483.333 333.333" stroke="black" stroke-width="50" stroke-linecap="round" stroke-linejoin="round"/>
</svg>
