<svg width="800" height="800" viewBox="0 0 800 800" fill="none" xmlns="http://www.w3.org/2000/svg">
<path d="M299.999 333.334C373.637 333.334 433.333 273.638 433.333 200C433.333 126.362 373.637 66.667 299.999 66.667C226.361 66.667 166.666 126.362 166.666 200C166.666 273.638 226.361 333.334 299.999 333.334Z" stroke="black" stroke-width="50"/>
<path d="M500 300C555.23 300 600 255.228 600 200C600 144.772 555.23 100 500 100" stroke="black" stroke-width="50" stroke-linecap="round"/>
<path d="M299.999 700C428.866 700 533.333 640.304 533.333 566.666C533.333 493.028 428.866 433.333 299.999 433.333C171.133 433.333 66.666 493.028 66.666 566.666C66.666 640.304 171.133 700 299.999 700Z" stroke="black" stroke-width="50"/>
<path d="M600 466.667C658.473 479.49 700 511.964 700 550C700 584.31 666.21 614.097 616.667 629.014" stroke="black" stroke-width="50" stroke-linecap="round"/>
</svg>
